<svg preserveAspectRatio="none" width="100%" height="100%" overflow="visible" style="display: block;" viewBox="0 0 44 32" fill="none" xmlns="http://www.w3.org/2000/svg">
<g id="Abstract Design" clip-path="url(#clip0_0_22)">
<path id="Vector" d="M9.33608 20.7037C8.50477 25.299 7.12467 28.5997 6.0244 30.6442C5.59516 31.4433 6.47266 32.3328 7.25236 31.873C16.4593 26.4676 20.4964 18.5826 20.999 12.2603C21.4309 6.80564 17.7389 1.18949 12.1425 0.165885C6.54329 -0.854984 1.18321 2.88638 0.167153 8.52716C-0.897802 14.4389 3.23976 20.118 9.33608 20.7037Z" fill="var(--fill-0, #EDEDED)"/>
<path id="Vector_2" d="M32.306 20.7044C31.4747 25.2997 30.0946 28.6004 28.9943 30.6449C28.5651 31.4441 29.4426 32.3336 30.2223 31.8738C39.4293 26.4684 43.4663 18.5833 43.9689 12.261C44.4009 6.80636 40.7088 1.19022 35.1124 0.166609C29.516 -0.856997 24.1531 2.8871 23.1398 8.52514C22.0749 14.4369 26.2124 20.116 32.3087 20.7017L32.306 20.7044Z" fill="var(--fill-0, #EDEDED)"/>
</g>
<defs>
<clipPath id="clip0_0_22">
<rect width="44" height="32" fill="white"/>
</clipPath>
</defs>
</svg>
