<svg preserveAspectRatio="none" width="100%" height="100%" overflow="visible" style="display: block;" viewBox="0 0 22 16" fill="none" xmlns="http://www.w3.org/2000/svg">
<g id="Abstract Design" clip-path="url(#clip0_0_7)">
<path id="Vector" d="M4.66707 10.3528C4.25141 12.6505 3.56136 14.3008 3.01122 15.3231C2.7966 15.7226 3.23535 16.1674 3.6252 15.9375C8.22868 13.2348 10.2472 9.29227 10.4985 6.13113C10.7145 3.4038 8.86847 0.595722 6.07025 0.0839193C3.27067 -0.426515 0.590626 1.44417 0.0825998 4.26456C-0.449877 7.22042 1.61891 10.06 4.66707 10.3528Z" fill="var(--fill-0, #EDEDED)"/>
<path id="Vector_2" d="M16.152 10.3532C15.7364 12.6508 15.0463 14.3012 14.4962 15.3234C14.2816 15.723 14.7203 16.1678 15.1102 15.9379C19.7137 13.2352 21.7322 9.29263 21.9835 6.13149C22.1995 3.40416 20.3534 0.596084 17.5552 0.0842812C14.757 -0.427522 12.0756 1.44453 11.5689 4.26355C11.0365 7.21942 13.1052 10.059 16.1534 10.3518L16.152 10.3532Z" fill="var(--fill-0, #EDEDED)"/>
</g>
<defs>
<clipPath id="clip0_0_7">
<rect width="22" height="16" fill="white"/>
</clipPath>
</defs>
</svg>
