<svg preserveAspectRatio="xMidYMid meet" width="98" height="18" viewBox="0 0 98 18" fill="none" xmlns="http://www.w3.org/2000/svg">
<g id="Container">
<path id="Shape" d="M8.13163 1.52052C8.51547 0.848415 9.48453 0.848416 9.86837 1.52052L11.6542 4.64753C11.7964 4.89648 12.0386 5.07243 12.3193 5.13072L15.8451 5.86285C16.6029 6.02021 16.9023 6.94184 16.3817 7.51458L13.9596 10.1793C13.7668 10.3915 13.6743 10.6762 13.7056 10.9611L14.0989 14.5406C14.1834 15.31 13.3994 15.8796 12.6938 15.5614L9.41103 14.0813C9.14968 13.9635 8.85032 13.9635 8.58897 14.0813L5.30619 15.5614C4.60061 15.8796 3.81663 15.31 3.90115 14.5406L4.29439 10.9611C4.3257 10.6762 4.23319 10.3914 4.04036 10.1793L1.61825 7.51458C1.09766 6.94184 1.39711 6.02021 2.15493 5.86285L5.68075 5.13072C5.96145 5.07243 6.20363 4.89648 6.3458 4.64753L8.13163 1.52052Z" fill="var(--fill-0, #FFD029)"/>
<path id="Shape_2" d="M28.1316 1.52052C28.5155 0.848415 29.4845 0.848416 29.8684 1.52052L31.6542 4.64753C31.7964 4.89648 32.0386 5.07243 32.3193 5.13072L35.8451 5.86285C36.6029 6.02021 36.9023 6.94184 36.3817 7.51458L33.9596 10.1793C33.7668 10.3915 33.6743 10.6762 33.7056 10.9611L34.0989 14.5406C34.1834 15.31 33.3994 15.8796 32.6938 15.5614L29.411 14.0813C29.1497 13.9635 28.8503 13.9635 28.589 14.0813L25.3062 15.5614C24.6006 15.8796 23.8166 15.31 23.9011 14.5406L24.2944 10.9611C24.3257 10.6762 24.2332 10.3914 24.0404 10.1793L21.6183 7.51458C21.0977 6.94184 21.3971 6.02021 22.1549 5.86285L25.6807 5.13072C25.9614 5.07243 26.2036 4.89648 26.3458 4.64753L28.1316 1.52052Z" fill="var(--fill-0, #FFD029)"/>
<path id="Shape_3" d="M48.1316 1.52052C48.5155 0.848415 49.4845 0.848416 49.8684 1.52052L51.6542 4.64753C51.7964 4.89648 52.0386 5.07243 52.3193 5.13072L55.8451 5.86285C56.6029 6.02021 56.9023 6.94184 56.3817 7.51458L53.9596 10.1793C53.7668 10.3915 53.6743 10.6762 53.7056 10.9611L54.0989 14.5406C54.1834 15.31 53.3994 15.8796 52.6938 15.5614L49.411 14.0813C49.1497 13.9635 48.8503 13.9635 48.589 14.0813L45.3062 15.5614C44.6006 15.8796 43.8166 15.31 43.9011 14.5406L44.2944 10.9611C44.3257 10.6762 44.2332 10.3914 44.0404 10.1793L41.6183 7.51458C41.0977 6.94184 41.3971 6.02021 42.1549 5.86285L45.6807 5.13072C45.9614 5.07243 46.2036 4.89648 46.3458 4.64753L48.1316 1.52052Z" fill="var(--fill-0, #FFD029)"/>
<path id="Shape_4" d="M68.1316 1.52052C68.5155 0.848415 69.4845 0.848416 69.8684 1.52052L71.6542 4.64753C71.7964 4.89648 72.0386 5.07243 72.3193 5.13072L75.8451 5.86285C76.6029 6.02021 76.9023 6.94184 76.3817 7.51458L73.9596 10.1793C73.7668 10.3915 73.6743 10.6762 73.7056 10.9611L74.0989 14.5406C74.1834 15.31 73.3994 15.8796 72.6938 15.5614L69.411 14.0813C69.1497 13.9635 68.8503 13.9635 68.589 14.0813L65.3062 15.5614C64.6006 15.8796 63.8166 15.31 63.9011 14.5406L64.2944 10.9611C64.3257 10.6762 64.2332 10.3914 64.0404 10.1793L61.6183 7.51458C61.0977 6.94184 61.3971 6.02021 62.1549 5.86285L65.6807 5.13072C65.9614 5.07243 66.2036 4.89648 66.3458 4.64753L68.1316 1.52052Z" fill="var(--fill-0, #FFD029)"/>
<path id="Shape_5" d="M88.1316 1.52052C88.5155 0.848415 89.4845 0.848416 89.8684 1.52052L91.6542 4.64753C91.7964 4.89648 92.0386 5.07243 92.3193 5.13072L95.8451 5.86285C96.6029 6.02021 96.9023 6.94184 96.3817 7.51458L93.9596 10.1793C93.7668 10.3915 93.6743 10.6762 93.7056 10.9611L94.0989 14.5406C94.1834 15.31 93.3994 15.8796 92.6938 15.5614L89.411 14.0813C89.1497 13.9635 88.8503 13.9635 88.589 14.0813L85.3062 15.5614C84.6006 15.8796 83.8166 15.31 83.9011 14.5406L84.2944 10.9611C84.3257 10.6762 84.2332 10.3914 84.0404 10.1793L81.6183 7.51458C81.0977 6.94184 81.3971 6.02021 82.1549 5.86285L85.6807 5.13072C85.9614 5.07243 86.2036 4.89648 86.3458 4.64753L88.1316 1.52052Z" fill="var(--fill-0, #FFD029)"/>
</g>
</svg>
