<svg preserveAspectRatio="none" width="100%" height="100%" overflow="visible" style="display: block;" viewBox="0 0 22 16" fill="none" xmlns="http://www.w3.org/2000/svg">
<g id="Abstract Design" clip-path="url(#clip0_0_4)">
<path id="Vector" d="M4.66804 10.3528C4.25238 12.6505 3.56234 14.3008 3.0122 15.3231C2.79758 15.7226 3.23633 16.1674 3.62618 15.9375C8.22966 13.2348 10.2482 9.29227 10.4995 6.13113C10.7155 3.4038 8.86945 0.595722 6.07123 0.0839193C3.27165 -0.426515 0.591603 1.44417 0.0835763 4.26456C-0.448901 7.22042 1.61988 10.06 4.66804 10.3528Z" fill="var(--fill-0, #EDEDED)"/>
<path id="Vector_2" d="M16.153 10.3532C15.7374 12.6508 15.0473 14.3012 14.4972 15.3234C14.2825 15.723 14.7213 16.1678 15.1111 15.9379C19.7146 13.2352 21.7332 9.29263 21.9845 6.13149C22.2004 3.40416 20.3544 0.596084 17.5562 0.0842812C14.758 -0.427522 12.0766 1.44453 11.5699 4.26355C11.0374 7.21942 13.1062 10.059 16.1544 10.3518L16.153 10.3532Z" fill="var(--fill-0, #EDEDED)"/>
</g>
<defs>
<clipPath id="clip0_0_4">
<rect width="22" height="16" fill="white"/>
</clipPath>
</defs>
</svg>
