<svg preserveAspectRatio="none" width="100%" height="100%" overflow="visible" style="display: block;" viewBox="0 0 22 22" fill="none" xmlns="http://www.w3.org/2000/svg">
<g id="Frame 1707480621">
<path id="Vector" d="M4.8125 11.0004V7.30472C4.8125 5.48907 4.8125 4.58124 5.19384 4.05578C5.52648 3.59743 6.03784 3.3016 6.60099 3.24171C7.2466 3.17304 8.0336 3.62557 9.60761 4.53062L12.836 6.38692L16.0349 8.22631C17.6173 9.13618 18.4085 9.59111 18.6737 10.1857C18.905 10.7042 18.905 11.2966 18.6737 11.8152C18.4085 12.4097 17.6173 12.8646 16.0349 13.7745L12.836 15.6139L9.60761 17.4702C8.0336 18.3753 7.2466 18.8278 6.60099 18.7591C6.03784 18.6992 5.52648 18.4034 5.19384 17.945C4.8125 17.4196 4.8125 16.5118 4.8125 14.6961V11.0004Z" fill="var(--fill-0, white)"/>
</g>
</svg>
