<svg preserveAspectRatio="none" width="100%" height="100%" overflow="visible" style="display: block;" viewBox="0 0 22 16" fill="none" xmlns="http://www.w3.org/2000/svg">
<g id="Abstract Design" clip-path="url(#clip0_0_10)">
<path id="Vector" d="M4.66804 10.3518C4.25238 12.6495 3.56234 14.2998 3.0122 15.3221C2.79758 15.7217 3.23633 16.1664 3.62618 15.9365C8.22966 13.2338 10.2482 9.29129 10.4995 6.13015C10.7155 3.40282 8.86945 0.594746 6.07123 0.0829427C3.27165 -0.427492 0.591603 1.44319 0.0835763 4.26358C-0.448901 7.21945 1.61988 10.059 4.66804 10.3518Z" fill="var(--fill-0, #EDEDED)"/>
<path id="Vector_2" d="M16.153 10.3522C15.7374 12.6498 15.0473 14.3002 14.4972 15.3224C14.2825 15.722 14.7213 16.1668 15.1111 15.9369C19.7146 13.2342 21.7332 9.29165 21.9845 6.13052C22.2004 3.40318 20.3544 0.595108 17.5562 0.0833046C14.758 -0.428498 12.0766 1.44355 11.5699 4.26257C11.0374 7.21844 13.1062 10.058 16.1544 10.3508L16.153 10.3522Z" fill="var(--fill-0, #EDEDED)"/>
</g>
<defs>
<clipPath id="clip0_0_10">
<rect width="22" height="16" fill="white"/>
</clipPath>
</defs>
</svg>
