<svg preserveAspectRatio="xMidYMid meet" width="22" height="16" viewBox="0 0 22 16" fill="none" xmlns="http://www.w3.org/2000/svg">
<g id="Abstract Design" clip-path="url(#clip0_0_25)">
<path id="Vector" d="M4.66707 10.3518C4.25141 12.6495 3.56136 14.2998 3.01122 15.3221C2.7966 15.7217 3.23535 16.1664 3.6252 15.9365C8.22868 13.2338 10.2472 9.29129 10.4985 6.13015C10.7145 3.40282 8.86847 0.594746 6.07025 0.0829427C3.27067 -0.427492 0.590626 1.44319 0.0825998 4.26358C-0.449877 7.21945 1.61891 10.059 4.66707 10.3518Z" fill="var(--fill-0, #EDEDED)"/>
<path id="Vector_2" d="M16.1523 10.3524C15.7366 12.65 15.0466 14.3004 14.4964 15.3226C14.2818 15.7222 14.7205 16.167 15.1104 15.9371C19.7139 13.2343 21.7324 9.29182 21.9837 6.13069C22.1997 3.40335 20.3537 0.595279 17.5554 0.0834759C14.7572 -0.428327 12.0758 1.44372 11.5692 4.26274C11.0367 7.21861 13.1055 10.0582 16.1536 10.351L16.1523 10.3524Z" fill="var(--fill-0, #EDEDED)"/>
</g>
<defs>
<clipPath id="clip0_0_25">
<rect width="22" height="16" fill="white"/>
</clipPath>
</defs>
</svg>
